<?xml version="1.0" encoding="UTF-8" standalone="no"?>
<!-- Created with Inkscape (http://www.inkscape.org/) -->

<svg
   xmlns:dc="http://purl.org/dc/elements/1.1/"
   xmlns:cc="http://creativecommons.org/ns#"
   xmlns:rdf="http://www.w3.org/1999/02/22-rdf-syntax-ns#"
   xmlns:svg="http://www.w3.org/2000/svg"
   xmlns="http://www.w3.org/2000/svg"
   xmlns:sodipodi="http://sodipodi.sourceforge.net/DTD/sodipodi-0.dtd"
   xmlns:inkscape="http://www.inkscape.org/namespaces/inkscape"
   width="400"
   height="400"
   viewBox="0 0 400 400.00001"
   id="svg2"
   version="1.1"
   inkscape:version="0.91 r13725"
   sodipodi:docname="skeptical-elephant.svg">
  <defs
     id="defs4">
    <inkscape:path-effect
       effect="spiro"
       id="path-effect4421"
       is_visible="true" />
    <inkscape:path-effect
       effect="spiro"
       id="path-effect4417"
       is_visible="true" />
  </defs>
  <sodipodi:namedview
     id="base"
     pagecolor="#ffffff"
     bordercolor="#666666"
     borderopacity="1.0"
     inkscape:pageopacity="0.0"
     inkscape:pageshadow="2"
     inkscape:zoom="3.045"
     inkscape:cx="133.71953"
     inkscape:cy="89.544859"
     inkscape:document-units="px"
     inkscape:current-layer="g4365"
     showgrid="false"
     units="px"
     inkscape:showpageshadow="false"
     inkscape:window-width="1600"
     inkscape:window-height="838"
     inkscape:window-x="-8"
     inkscape:window-y="-8"
     inkscape:window-maximized="1" />
  <metadata
     id="metadata7">
    <rdf:RDF>
      <cc:Work
         rdf:about="">
        <dc:format>image/svg+xml</dc:format>
        <dc:type
           rdf:resource="http://purl.org/dc/dcmitype/StillImage" />
        <dc:title></dc:title>
      </cc:Work>
    </rdf:RDF>
  </metadata>
  <g
     inkscape:label="Layer 1"
     inkscape:groupmode="layer"
     id="layer1"
     transform="translate(0,-652.36216)">
    <path
       sodipodi:nodetypes="cc"
       inkscape:connector-curvature="0"
       id="path4266"
       d="m 135.15144,991.98523 c 0.19577,34.17757 31.58179,97.21167 29.72403,4.64433"
       style="fill:#e5d5ff;fill-rule:evenodd;stroke:#000000;stroke-width:1px;stroke-linecap:butt;stroke-linejoin:miter;stroke-opacity:1" />
    <path
       style="fill:#e5d5ff;fill-rule:evenodd;stroke:#000000;stroke-width:1px;stroke-linecap:butt;stroke-linejoin:miter;stroke-opacity:1;fill-opacity:1"
       d="m 52.017051,989.66304 c 0.195764,34.17756 28.795153,97.21166 28.330715,18.57746"
       id="path4264"
       inkscape:connector-curvature="0"
       sodipodi:nodetypes="cc" />
    <g
       id="g4333">
      <path
         sodipodi:nodetypes="cc"
         inkscape:connector-curvature="0"
         id="path4268"
         d="m 83.598827,978.98097 c 0.19577,34.17763 28.795163,97.21173 28.330723,18.5775"
         style="fill:#e5d5ff;fill-rule:evenodd;stroke:#000000;stroke-width:1px;stroke-linecap:butt;stroke-linejoin:miter;stroke-opacity:1;fill-opacity:1" />
      <ellipse
         ry="61.073589"
         rx="71.755661"
         cy="953.20465"
         cx="111.69732"
         id="path4259"
         style="opacity:1;fill:#e5d5ff;fill-opacity:1;stroke:#000000;stroke-width:1.23300004;stroke-linecap:round;stroke-linejoin:round;stroke-miterlimit:4;stroke-dasharray:none;stroke-opacity:1" />
      <path
         style="fill:#e5d5ff;fill-opacity:1;fill-rule:evenodd;stroke:#000000;stroke-width:1.23277962px;stroke-linecap:round;stroke-linejoin:miter;stroke-opacity:1"
         d="m 180.03271,932.61357 c 40.86819,1.74722 42.11355,-78.69685 -2.61403,-77.24976 -10.70012,0.3462 -8.19513,34.46202 -11.76312,48.1557"
         id="path4164"
         inkscape:connector-curvature="0"
         sodipodi:nodetypes="csc" />
      <circle
         r="38.92857"
         cy="887.7193"
         cx="154.28572"
         id="path4136"
         style="opacity:1;fill:#e5d5ff;fill-opacity:1;stroke:#000000;stroke-width:1.5;stroke-linejoin:round;stroke-miterlimit:4;stroke-dasharray:none;stroke-opacity:1" />
      <path
         transform="matrix(1.0143623,0,0,1.0175328,-2.8130146,-18.51533)"
         d="m 187.85713,885.57642 c 0,0 0,-10e-6 0,-10e-6 10e-6,-10e-6 3e-5,0 4e-5,0 8e-5,4e-5 4e-5,1.7e-4 0,2.2e-4 -2.2e-4,3.3e-4 -7.4e-4,1.5e-4 -9.8e-4,-4e-5 -0.001,-9e-4 -4.4e-4,-0.003 3.5e-4,-0.003 0.003,-0.003 0.008,-0.001 0.0103,0.002 0.008,0.008 0.002,0.0208 -0.005,0.027 -0.0202,0.017 -0.0498,0.004 -0.0639,-0.0146 -0.0352,-0.0459 -0.005,-0.10972 0.0363,-0.13932 0.0966,-0.0685 0.22561,-0.006 0.28413,0.082 0.12653,0.19127 0.005,0.43797 -0.17146,0.54739 -0.35904,0.22325 -0.80943,-0.005 -1.00463,-0.33683 -0.37884,-0.6442 0.0297,-1.43383 0.62776,-1.76826 1.11149,-0.6215 2.44762,0.0826 3.00089,1.11862 0.98974,1.85329 -0.18406,4.04449 -1.91763,4.93216 -2.99837,1.5353 -6.49324,-0.36444 -7.87935,-3.17821 -2.32651,-4.72277 0.66803,-10.15993 5.11317,-12.27283 7.26284,-3.45221 15.53438,1.15756 18.68637,8.01202 5.02654,10.93094 -1.91974,23.26215 -12.26179,27.87369 -10.73962,4.7888 -23.40098,1.75586 -31.9544,-5.95241"
         sodipodi:t0="0.094999999"
         sodipodi:argument="-31.704605"
         sodipodi:radius="33.384739"
         sodipodi:revolution="5.4499998"
         sodipodi:expansion="8.1800003"
         sodipodi:cy="885.57642"
         sodipodi:cx="187.85713"
         id="path4140"
         style="fill:#e5d5ff;fill-rule:evenodd;stroke:#000000;stroke-width:1.50007927;stroke-linecap:round;stroke-linejoin:miter;stroke-miterlimit:4;stroke-dasharray:none;stroke-opacity:1;fill-opacity:1"
         sodipodi:type="spiral" />
      <path
         sodipodi:nodetypes="csc"
         inkscape:connector-curvature="0"
         id="path4144"
         d="m 125.40992,934.00688 c -40.868186,1.74722 -42.113552,-78.69685 2.61403,-77.24976 10.70012,0.3462 8.19513,34.46202 11.76312,48.1557"
         style="fill:#e5d5ff;fill-opacity:1;fill-rule:evenodd;stroke:#000000;stroke-width:1.233;stroke-linecap:round;stroke-linejoin:miter;stroke-opacity:1;stroke-miterlimit:4;stroke-dasharray:none" />
      <path
         style="fill:#e5d5ff;fill-opacity:1;fill-rule:evenodd;stroke:#000000;stroke-width:1.233;stroke-linecap:round;stroke-linejoin:miter;stroke-opacity:1;stroke-miterlimit:4;stroke-dasharray:none"
         d="m 125.40992,934.00688 c -40.868186,1.74722 -42.113552,-78.69685 2.61403,-77.24976 10.70012,0.3462 8.19513,34.46202 11.76312,48.1557"
         id="path4175"
         inkscape:connector-curvature="0"
         sodipodi:nodetypes="csc" />
      <path
         sodipodi:nodetypes="csc"
         inkscape:connector-curvature="0"
         id="path4186"
         d="m 122.27955,922.92128 c -30.205308,1.29135 -31.125748,-58.16412 1.93201,-57.09459 7.90836,0.25587 6.05694,25.47056 8.69401,35.59143"
         style="fill:#ccaaff;fill-opacity:1;fill-rule:evenodd;stroke:#000000;stroke-width:0.91129899;stroke-linecap:round;stroke-linejoin:miter;stroke-miterlimit:4;stroke-dasharray:none;stroke-opacity:1" />
      <circle
         r="4.760489"
         cy="874.59857"
         cx="146.87849"
         id="path4188"
         style="opacity:1;fill:#80e5ff;fill-opacity:1;stroke:#000000;stroke-width:1.23300004;stroke-linecap:round;stroke-linejoin:round;stroke-miterlimit:4;stroke-dasharray:none;stroke-opacity:1" />
      <circle
         style="opacity:1;fill:#00aa88;fill-opacity:1;stroke:#000000;stroke-width:1.23300004;stroke-linecap:round;stroke-linejoin:round;stroke-miterlimit:4;stroke-dasharray:none;stroke-opacity:1"
         id="circle4253"
         cx="171.95815"
         cy="873.43744"
         r="4.760489" />
      <circle
         r="1.5094234"
         cy="873.2052"
         cx="148.73624"
         id="path4255"
         style="opacity:1;fill:#d5f6ff;fill-opacity:1;stroke:none;stroke-width:1.23300004;stroke-linecap:round;stroke-linejoin:round;stroke-miterlimit:4;stroke-dasharray:none;stroke-opacity:1" />
      <circle
         style="opacity:1;fill:#87decd;fill-opacity:1;stroke:none;stroke-width:1.23300004;stroke-linecap:round;stroke-linejoin:round;stroke-miterlimit:4;stroke-dasharray:none;stroke-opacity:1"
         id="circle4257"
         cx="174.04811"
         cy="871.81189"
         r="1.5094234" />
      <circle
         r="1.5"
         cy="989.19861"
         cx="52.945927"
         style="fill:#000000;stroke:none"
         id="path4262" />
      <path
         inkscape:connector-curvature="0"
         id="path4272"
         d="m 38.083912,944.61256 c -23.008328,-3.27836 -18.921806,18.79471 1.393314,16.25532"
         style="fill:#e5d5ff;fill-rule:evenodd;stroke:#000000;stroke-width:1px;stroke-linecap:butt;stroke-linejoin:miter;stroke-opacity:1" />
    </g>
    <g
       id="g4365">
      <path
         sodipodi:nodetypes="cc"
         inkscape:connector-curvature="0"
         id="path4283"
         d="m 280.06669,1012.0745 c 0.0954,16.6497 15.38516,47.3569 14.48014,2.2625"
         style="fill:#5599ff;fill-rule:evenodd;stroke:#000000;stroke-width:0.48715258px;stroke-linecap:butt;stroke-linejoin:miter;stroke-opacity:1" />
      <path
         style="fill:#5599ff;fill-opacity:1;fill-rule:evenodd;stroke:#000000;stroke-width:0.48715258px;stroke-linecap:butt;stroke-linejoin:miter;stroke-opacity:1"
         d="m 254.95271,1005.7394 c 0.0954,16.6497 14.02763,47.357 13.80138,9.0501"
         id="path4285"
         inkscape:connector-curvature="0"
         sodipodi:nodetypes="cc" />
      <ellipse
         style="opacity:1;fill:#5599ff;fill-opacity:1;stroke:#000000;stroke-width:0.60065913;stroke-linecap:round;stroke-linejoin:round;stroke-miterlimit:4;stroke-dasharray:none;stroke-opacity:1"
         id="ellipse4287"
         cx="268.64096"
         cy="993.18237"
         rx="34.955956"
         ry="29.752155" />
      <path
         sodipodi:nodetypes="csc"
         inkscape:connector-curvature="0"
         id="path4289"
         d="m 301.93072,983.1514 c 19.90904,0.85116 20.51573,-38.33737 -1.27343,-37.63242 -5.21259,0.16865 -3.99228,16.78826 -5.73043,23.45917"
         style="fill:#5599ff;fill-opacity:1;fill-rule:evenodd;stroke:#000000;stroke-width:0.60055178px;stroke-linecap:round;stroke-linejoin:miter;stroke-opacity:1" />
      <circle
         style="opacity:1;fill:#5599ff;fill-opacity:1;stroke:#000000;stroke-width:0.73072886;stroke-linejoin:round;stroke-miterlimit:4;stroke-dasharray:none;stroke-opacity:1"
         id="circle4291"
         cx="289.38803"
         cy="961.28107"
         r="18.964153" />
      <path
         sodipodi:type="spiral"
         style="fill:#5599ff;fill-opacity:1;fill-rule:evenodd;stroke:#000000;stroke-width:1.50007927;stroke-linecap:round;stroke-linejoin:miter;stroke-miterlimit:4;stroke-dasharray:none;stroke-opacity:1"
         id="path4293"
         sodipodi:cx="187.85713"
         sodipodi:cy="885.57642"
         sodipodi:expansion="8.1800003"
         sodipodi:revolution="5.4499998"
         sodipodi:radius="33.384739"
         sodipodi:argument="-31.704605"
         sodipodi:t0="0.094999999"
         d="m 187.85713,885.57642 c 0,0 0,-10e-6 0,-10e-6 10e-6,-10e-6 3e-5,0 4e-5,0 8e-5,4e-5 4e-5,1.7e-4 0,2.2e-4 -2.2e-4,3.3e-4 -7.4e-4,1.5e-4 -9.8e-4,-4e-5 -0.001,-9e-4 -4.4e-4,-0.003 3.5e-4,-0.003 0.003,-0.003 0.008,-0.001 0.0103,0.002 0.008,0.008 0.002,0.0208 -0.005,0.027 -0.0202,0.017 -0.0498,0.004 -0.0639,-0.0146 -0.0352,-0.0459 -0.005,-0.10972 0.0363,-0.13932 0.0966,-0.0685 0.22561,-0.006 0.28413,0.082 0.12653,0.19127 0.005,0.43797 -0.17146,0.54739 -0.35904,0.22325 -0.80943,-0.005 -1.00463,-0.33683 -0.37884,-0.6442 0.0297,-1.43383 0.62776,-1.76826 1.11149,-0.6215 2.44762,0.0826 3.00089,1.11862 0.98974,1.85329 -0.18406,4.04449 -1.91763,4.93216 -2.99837,1.5353 -6.49324,-0.36444 -7.87935,-3.17821 -2.32651,-4.72277 0.66803,-10.15993 5.11317,-12.27283 7.26284,-3.45221 15.53438,1.15756 18.68637,8.01202 5.02654,10.93094 -1.91974,23.26215 -12.26179,27.87369 -10.73962,4.7888 -23.40098,1.75586 -31.9544,-5.95241"
         transform="matrix(0.4941492,0,0,0.49569372,212.85696,519.80651)" />
      <path
         style="fill:#e5d5ff;fill-opacity:1;fill-rule:evenodd;stroke:#000000;stroke-width:0.60065913;stroke-linecap:round;stroke-linejoin:miter;stroke-miterlimit:4;stroke-dasharray:none;stroke-opacity:1"
         d="m 275.32109,983.83015 c -19.90904,0.85117 -20.51573,-38.33737 1.27343,-37.63242 5.21259,0.16866 3.99228,16.78827 5.73043,23.45918"
         id="path4295"
         inkscape:connector-curvature="0"
         sodipodi:nodetypes="csc" />
      <path
         sodipodi:nodetypes="csc"
         inkscape:connector-curvature="0"
         id="path4297"
         d="m 275.32109,983.83015 c -19.90904,0.85117 -20.51573,-38.33737 1.27343,-37.63242 5.21259,0.16866 3.99228,16.78827 5.73043,23.45918"
         style="fill:#5599ff;fill-opacity:1;fill-rule:evenodd;stroke:#000000;stroke-width:0.60065913;stroke-linecap:round;stroke-linejoin:miter;stroke-miterlimit:4;stroke-dasharray:none;stroke-opacity:1" />
      <path
         style="fill:#2a7fff;fill-opacity:1;fill-rule:evenodd;stroke:#000000;stroke-width:0.44394165;stroke-linecap:round;stroke-linejoin:miter;stroke-miterlimit:4;stroke-dasharray:none;stroke-opacity:1"
         d="m 273.1393,978.10136 c -14.71459,0.62909 -15.16298,-28.3348 0.94118,-27.81377 3.85258,0.12465 2.95066,12.40805 4.23531,17.33846"
         id="path4299"
         inkscape:connector-curvature="0"
         sodipodi:nodetypes="csc" />
      <circle
         style="opacity:1;fill:#aa87de;fill-opacity:1;stroke:#000000;stroke-width:0.60065913;stroke-linecap:round;stroke-linejoin:round;stroke-miterlimit:4;stroke-dasharray:none;stroke-opacity:1"
         id="circle4301"
         cx="285.77957"
         cy="954.88922"
         r="2.3190844" />
      <circle
         r="2.3190844"
         cy="954.32361"
         cx="297.99719"
         id="circle4303"
         style="opacity:1;fill:#00aa88;fill-opacity:1;stroke:#000000;stroke-width:0.60065913;stroke-linecap:round;stroke-linejoin:round;stroke-miterlimit:4;stroke-dasharray:none;stroke-opacity:1" />
      <circle
         style="opacity:1;fill:#e3d7f4;fill-opacity:1;stroke:none;stroke-width:1.23300004;stroke-linecap:round;stroke-linejoin:round;stroke-miterlimit:4;stroke-dasharray:none;stroke-opacity:1"
         id="circle4305"
         cx="286.35617"
         cy="953.22522"
         r="0.7353195" />
      <circle
         r="0.7353195"
         cy="953.53168"
         cx="299.01532"
         id="circle4307"
         style="opacity:1;fill:#87decd;fill-opacity:1;stroke:none;stroke-width:1.23300004;stroke-linecap:round;stroke-linejoin:round;stroke-miterlimit:4;stroke-dasharray:none;stroke-opacity:1" />
      <circle
         id="circle4309"
         style="fill:#000000;stroke:none"
         cx="240.02007"
         cy="1010.7169"
         r="0.73072886" />
      <path
         style="fill:#5599ff;fill-opacity:1;fill-rule:evenodd;stroke:#000000;stroke-width:0.48715258px;stroke-linecap:butt;stroke-linejoin:miter;stroke-opacity:1"
         d="m 239.56757,1010.9432 c 0.0954,16.6497 14.02763,47.3569 13.80138,9.0501"
         id="path4311"
         inkscape:connector-curvature="0"
         sodipodi:nodetypes="cc" />
      <path
         style="fill:#5599ff;fill-rule:evenodd;stroke:#000000;stroke-width:0.48715258px;stroke-linecap:butt;stroke-linejoin:miter;stroke-opacity:1"
         d="m 232.78,988.99674 c -11.20856,-1.59706 -9.21781,9.15589 0.67876,7.91882"
         id="path4313"
         inkscape:connector-curvature="0" />
      <ellipse
         style="opacity:0.98;fill:none;fill-opacity:1;stroke:#ffd42a;stroke-width:0.75;stroke-linecap:square;stroke-linejoin:round;stroke-miterlimit:4;stroke-dasharray:none;stroke-opacity:1"
         id="path4407"
         cx="298.63361"
         cy="954.22058"
         rx="3.8896677"
         ry="4.2670236" />
      <path
         style="fill:none;fill-rule:evenodd;stroke:#ffdd55;stroke-width:1px;stroke-linecap:butt;stroke-linejoin:miter;stroke-opacity:1"
         d="m 302.63938,952.27578 c 1.77284,-1.17802 3.99279,-1.6643 6.09575,-1.33526 1.80551,0.2825 3.50032,1.148 4.86049,2.3685 1.36016,1.2205 2.39181,2.78607 3.07756,4.48 1.3715,3.38787 1.35605,7.19246 0.77016,10.80014 -0.15291,0.94157 -0.34369,1.87946 -0.6386,2.78663 -0.44919,1.38177 -1.14008,2.68459 -2.03192,3.83162"
         id="path4415"
         inkscape:path-effect="#path-effect4417"
         inkscape:original-d="m 302.63938,952.27578 c 1.83098,-0.80964 3.7636,-1.72395 6.09575,-1.33526 4.17901,0.6965 10.57194,13.92118 8.70821,17.64864 -0.3932,0.78641 -0.45752,1.88123 -0.6386,2.78663 -0.25182,1.2591 -1.5673,2.59263 -2.03192,3.83162"
         inkscape:connector-curvature="0" />
      <path
         style="fill:none;fill-rule:evenodd;stroke:#d4aa00;stroke-width:5;stroke-linecap:butt;stroke-linejoin:miter;stroke-opacity:1;stroke-miterlimit:4;stroke-dasharray:none"
         d="m 85.714286,897.68236 c -0.01377,14.51658 6.254742,28.93202 16.881454,38.82162 10.62671,9.8896 25.45484,15.10744 39.933,14.05194 4.43929,-0.32364 8.8215,-1.20579 13.13628,-2.29885 8.23535,-2.08625 16.27374,-4.94924 23.97373,-8.53859"
         id="path4419"
         inkscape:path-effect="#path-effect4421"
         inkscape:original-d="m 85.714286,897.68236 c 6.669181,25.68371 25.794084,63.21368 56.814454,52.87356 4.50979,-1.50326 9.23564,0.30158 13.13628,-2.29885 7.31713,-4.87809 17.24768,-2.93355 23.97373,-8.53859"
         inkscape:connector-curvature="0" />
    </g>
    <path
       style="fill:#fff6d5;fill-rule:evenodd;stroke:#000000;stroke-width:0.93953711px;stroke-linecap:butt;stroke-linejoin:miter;stroke-opacity:1"
       d="m 152.9133,902.75928 c 8.00432,14.70433 14.12387,23.911 29.42625,32.24571 0.70388,0.38337 4.96588,1.41543 5.40122,0.84896 0.55834,-0.72649 -24.68055,-31.30316 -28.52284,-34.85339"
       id="path4383"
       inkscape:connector-curvature="0"
       sodipodi:nodetypes="cssc" />
    <path
       sodipodi:nodetypes="cssc"
       inkscape:connector-curvature="0"
       id="path4385"
       d="m 289.30533,969.39252 c 4.94326,6.85623 8.59322,11.07867 16.78707,14.28096 0.3769,0.14729 2.57713,0.39341 2.75919,0.0821 0.23349,-0.39932 -14.35026,-14.11038 -16.50026,-15.64443"
       style="fill:#fff6d5;fill-rule:evenodd;stroke:#000000;stroke-width:0.47434586px;stroke-linecap:butt;stroke-linejoin:miter;stroke-opacity:1" />
    <path
       style="fill:none;fill-rule:evenodd;stroke:#000000;stroke-width:1px;stroke-linecap:butt;stroke-linejoin:miter;stroke-opacity:1"
       d="m 139.24466,865.82686 c 6.29945,-4.19633 11.34776,-3.67474 13.4647,1.97044"
       id="path4387"
       inkscape:connector-curvature="0" />
    <path
       inkscape:connector-curvature="0"
       id="path4389"
       d="m 139.24466,865.82686 c 6.29945,-4.19633 11.34776,-3.67474 13.4647,1.97044"
       style="fill:none;fill-rule:evenodd;stroke:#000000;stroke-width:1px;stroke-linecap:butt;stroke-linejoin:miter;stroke-opacity:1" />
    <path
       style="fill:none;fill-rule:evenodd;stroke:#000000;stroke-width:1px;stroke-linecap:butt;stroke-linejoin:miter;stroke-opacity:1"
       d="m 165.84565,862.21438 c 6.29945,-4.19633 11.34776,-3.67474 13.4647,1.97044"
       id="path4393"
       inkscape:connector-curvature="0" />
  </g>
</svg>
